<svg width="120" height="120" viewBox="0 0 120 120" fill="none" xmlns="http://www.w3.org/2000/svg">
<g clip-path="url(#clip0_2315_87592)">
<path d="M17.938 60.0352L1.43412 59.3247C1.31943 55.4068 1.92875 49.762 2.21012 48.3121C4.746 35.3009 14.2999 20.1222 24.8431 12.1892C45.3756 -3.26116 75.1413 -4.50777 95.9015 11.234L91.0179 9.08619C90.7276 11.3438 92.733 13.7524 94.9463 13.9845C97.1596 14.2165 101.541 12.6713 100.778 16.931C99.7152 16.7997 97.5484 17.0713 97.0753 15.8787L98.1667 14.7058L92.6039 14.7904C95.509 20.1887 102.384 17.87 106.826 20.6726C107.78 21.2753 110.298 24.0257 108.321 24.1085C105.739 24.2164 104.226 22.8834 104.264 20.2913L100.803 19.9783C102.683 22.7359 103.921 22.7791 103.342 26.5135C103.228 27.2565 103.622 28.0066 102.504 27.7026C100.651 27.0352 99.2832 23.3385 101.597 22.8277C100.201 20.2733 99.2814 19.2803 96.3603 18.6219C97.1452 20.2859 96.9768 22.9914 97.4517 24.3963C97.7133 25.1698 99.4535 25.49 99.6614 27.368C99.8316 28.9132 98.7546 29.622 98.4499 30.9531C93.3817 28.7963 99.1668 21.6854 94.5932 18.4906C94.3387 19.3936 93.2509 21.054 93.19 21.7699C93.1272 22.5165 94.0233 23.0939 93.914 24.211C93.7796 25.5763 92.2132 27.4381 92.034 28.9456C90.1541 27.8249 89.982 25.5116 90.4516 23.5292C90.8225 21.9696 92.2688 21.2321 92.6272 19.9963C93.4265 17.2476 91.3118 16.2798 90.3494 14.1338C89.5161 12.2774 89.224 9.85431 88.5645 7.88636C86.3906 7.21178 88.4605 10.8041 87.801 11.3743C85.0752 11.2754 83.878 8.74621 83.1217 6.46166L85.0931 7.10925C82.7095 4.32462 77.6862 4.26166 74.2685 3.2507C74.4495 4.71137 75.3438 5.55504 75.4514 7.183C75.5105 8.07524 75.7112 8.50156 74.627 8.36665C72.5624 8.11121 71.2094 5.47769 71.2183 3.52413L72.7614 3.13737C64.7881 1.34211 54.5604 1.25936 46.8954 4.47392C46.295 4.72576 45.4688 4.84089 45.286 5.6054C47.6947 6.42568 49.8076 6.61636 52.3166 6.13967L50.8506 5.52086C52.5675 3.37842 57.2647 1.6713 59.0031 4.61783C57.2988 4.30123 56.8131 5.9274 55.9636 6.43108C53.9331 7.63272 51.3112 6.95815 49.175 7.67949C53.4385 11.7107 61.202 2.08144 62.5659 10.9786C60.2146 10.7411 57.7952 11.7251 55.5048 10.707C53.831 9.96224 56.8185 10.0036 55.8543 9.44956C54.1786 9.27867 52.9564 10.7987 51.2772 10.6116C47.9742 10.2465 43.9348 4.49551 39.1408 6.66853C40.2877 9.95144 37.9096 10.8365 37.6103 13.6517C38.2196 12.7972 41.0118 12.4537 41.1534 12.3062C41.6552 11.7863 40.8397 10.4785 42.8272 9.59347C44.1946 8.98366 45.4832 9.47115 46.881 9.42258C48.3542 9.37041 47.0334 11.1945 46.5656 11.7719C44.4688 14.3479 41.3684 12.6497 39.1013 14.0295C38.4006 14.4558 35.5135 18.3827 35.7178 18.577C40.9956 17.8466 47.3793 14.7058 52.589 14.391C56.0048 14.1842 59.2468 16.9706 62.3633 13.7614C65.2039 10.8383 63.3616 3.79216 69.152 4.12854C69.3258 6.90958 67.9907 8.18317 65.9458 9.714L65.3132 8.14899C65.3813 10.5343 64.6465 12.6515 63.3078 14.5835C68.5337 15.8625 70.6914 10.054 75.6682 11.4715C74.4585 15.8175 71.3384 14.9757 67.833 14.9379L71.1198 18.219C67.7846 17.0767 64.6716 16.2295 61.1088 16.9598C61.8526 19.1634 62.858 20.5953 62.1537 23.1227C60.5282 21.743 57.8884 20.8471 57.9816 18.2424C58.1984 18.0409 60.8741 19.847 59.5121 18.0967C57.6877 17.8844 55.0048 16.4021 53.3399 16.3896C50.9725 16.3716 42.2842 20.9712 40.4383 22.9914C43.1767 23.5364 45.4097 23.1191 48.0477 22.5542C48.0477 22.5542 48.0746 21.394 48.1803 21.099C48.9026 19.0735 50.8435 18.4205 53.4152 18.4061C53.1947 20.0466 51.9707 21.6674 50.5997 22.5201C48.8488 23.6084 47.1409 23.0237 45.89 24.4215C51.7091 26.6988 57.236 26.321 63.0623 24.4556C68.5677 22.6928 77.6001 18.3809 78.645 12.2018L77.6145 12.6353C77.0499 10.0036 76.7059 6.10009 80.1432 5.72773C80.74 9.09159 80.3672 12.3529 78.4191 15.2275C81.8547 15.0008 83.0052 11.8636 87.1487 13.3621C87.7902 14.1068 85.4336 16.4057 84.525 16.6108C82.154 17.1469 81.0643 14.5421 78.3457 16.2474C78.3242 17.1451 79.9891 16.7961 80.8278 17.1631C85.8709 19.3649 78.3062 22.7125 75.8349 19.2138L73.9442 20.9748C75.5714 20.7626 78.5661 22.86 79.6145 22.9158C81.4281 23.0147 84.3027 19.3307 86.8279 24.2416C82.8654 26.9884 78.8206 22.7575 74.5893 22.5129C72.5373 22.3941 70.6341 23.2 68.695 23.6318L72.8545 24.9251C76.2345 23.5598 78.5912 24.6661 81.6396 26.1376C80.274 29.0463 74.8617 30.0267 72.9872 27.001C74.2184 27.0064 76.7363 27.5101 77.584 26.33L67.7864 25.5853C65.8652 25.4396 59.3633 27.9508 56.3471 28.1379C54.2826 28.2656 52.236 27.8933 50.1857 27.8051C53.3166 31.7176 55.7934 33.8115 55.3776 39.3502C55.3776 39.3502 52.2216 36.9253 51.5765 35.7938C51.175 35.0905 50.5836 33.3834 50.8757 32.6278C50.9976 32.3112 51.9044 31.741 51.9044 31.741C47.8685 26.9057 42.0799 23.0094 35.6461 25.9073C34.4167 26.4614 23.438 34.826 22.5706 35.8784C21.3484 37.3624 18.8788 43.2123 18.5724 44.9266C17.4953 50.9294 17.938 60.037 17.938 60.037V60.0352ZM37.5601 7.56796C28.7714 10.912 20.1279 20.1312 18.2301 29.4295L29.6657 21.6638C30.8933 19.4224 28.3234 14.776 31.3629 12.6839C34.1783 15.8031 30.5708 18.4133 30.9328 21.7699C31.7285 22.8564 36.7895 15.2095 36.9185 14.7544C37.3558 13.2128 35.9418 9.44237 37.5583 7.56976H37.5601V7.56796ZM21.0885 31.6691C22.3484 31.9497 28.8109 27.5749 28.0331 26.6215L21.0885 31.6691ZM15.5956 57.6284C13.3321 53.804 13.5884 50.3322 13.2856 46.184C13.2479 45.666 13.2927 44.1639 12.5687 44.2179C12.2264 47.9127 12.2425 53.5396 13.9952 56.8818C14.497 57.837 14.4469 57.6104 15.5956 57.6284ZM9.05968 57.1355L8.37688 50.8916L6.8894 45.8153C7.117 49.0856 7.36432 52.6905 8.08655 55.8799C8.27652 56.7163 7.56862 57.274 9.06148 57.1337L9.05968 57.1355Z" fill="#339900"/>
<path d="M115.981 41.7522C115.981 46.4004 112.913 50.3256 108.7 51.6009L96.1172 38.1725C97.5634 34.2528 101.323 31.4609 105.727 31.4609C111.39 31.4609 115.981 36.0696 115.981 41.754V41.7522Z" fill="#F58B1E"/>
<path d="M113.336 58.5781L111.965 58.5943L111.949 58.5781H113.336Z" fill="white"/>
<path d="M85.3778 45.7188H80.6035V50.5109H85.3778V45.7188Z" fill="#0A2F5B"/>
<path d="M91.2313 45.7188H86.457V50.5109H91.2313V45.7188Z" fill="#0A2F5B"/>
<path d="M85.3778 51.5703H80.6035V56.3625H85.3778V51.5703Z" fill="#0A2F5B"/>
<path d="M91.2313 51.5703H86.457V56.3625H91.2313V51.5703Z" fill="#0A2F5B"/>
<path d="M115.168 58.5215L88.4476 29.9844L61.7214 58.5215H54.9417L35.1637 37.4047L15.3856 58.5215H1.43555V60.0397H118.563V58.5215H115.168ZM88.6842 32.2851L113.28 58.5215H111.894L88.0049 33.0334L88.6859 32.2851H88.6842ZM85.6662 35.3899L107.328 58.5215H64.0028L85.6644 35.3899H85.6662ZM35.3303 39.781L52.8861 58.5215H21.0021L36.031 42.49L35.3339 41.7579L19.6186 58.5215H17.7799L35.3303 39.781Z" fill="#0A2F5B"/>
<path d="M60.8304 57.8277L87.7107 29.1953L70.7947 37.3963V43.5124H69.4721V33.4784H71.5671V31.0553H61.0168V33.7266H62.8663V41.1973L58.2318 43.3757L36.7207 37.6841L55.6332 57.8277H60.8304Z" fill="#0A2F5B"/>
<path d="M35.4283 49.5625H32.0215V52.9821H35.4283V49.5625Z" fill="#0A2F5B"/>
<path d="M39.6061 49.5625H36.1992V52.9821H39.6061V49.5625Z" fill="#0A2F5B"/>
<path d="M35.4283 53.7344H32.0215V57.154H35.4283V53.7344Z" fill="#0A2F5B"/>
<path d="M39.6061 53.7344H36.1992V57.154H39.6061V53.7344Z" fill="#0A2F5B"/>
<path d="M111.053 90.875C102.628 95.2624 94.9883 94.1975 94.9883 96.2572C94.9883 101.67 106.506 95.7553 108.756 94.4943C79.8949 130.939 31.6182 126.883 8.92969 91.4866L111.053 90.8768V90.875ZM97.2984 92.368L70.9826 92.8951C80.3734 95.4693 84.1405 99.1048 97.2984 92.368ZM69.47 92.7908L46.7313 92.8322C50.2547 94.8145 57.3444 96.3507 61.1921 95.4567C65.6563 94.4205 68.9772 93.5607 69.47 92.7908ZM48.3353 98.2881C43.3872 96.9425 38.7455 94.1867 33.4928 94.1165C36.0466 95.0124 37.1828 95.66 38.914 96.2734C40.242 96.7968 47.6453 100.119 48.3353 98.2881ZM100.246 100.2C97.4507 100.578 94.8396 98.9051 92.0546 98.5417C87.4757 97.9445 82.3 99.8405 77.6117 98.7288C80.9021 101.404 84.7301 99.8711 88.3771 100.283C92.3933 100.736 96.5331 103.951 100.246 100.198V100.2ZM35.4355 101.864L31.0286 97.8887L23.4048 93.8593C24.9407 99.2163 30.5608 100.769 35.4355 101.864ZM94.3396 104.825C88.5061 102.78 86.7158 104.115 81.0938 103.771C75.6547 103.438 71.5077 95.4819 65.4538 99.3296C70.1188 102.107 73.2478 105.966 79.2999 105.726C81.687 105.633 85.2301 109.848 85.2301 109.848C85.2301 109.848 81.42 108.067 79.6673 107.768C78.334 107.54 76.816 108.322 75.4074 107.952C79.3859 117.392 89.5886 109.292 94.3378 104.827H94.3396V104.825ZM52.4895 110.259C48.8962 106.198 44.4732 102.357 39.0269 101.132C42.751 104.946 48.0109 107.387 52.4895 110.259ZM75.6045 112.015C72.6098 107.943 68.4306 103.841 63.1097 103.467C65.2961 110.36 68.4449 112.634 75.6045 112.015ZM62.5398 111.024C60.6222 107.12 58.5254 103.123 53.4895 103.749C52.8927 104.203 57.0541 108.948 57.649 109.351C58.2476 109.756 62.185 111.263 62.5398 111.022V111.024ZM39.6506 106.252C37.1953 106.295 33.6272 105.068 31.5411 106.64C33.267 107.196 38.6649 107.903 39.6506 106.252ZM48.2367 112.992C45.7797 112.215 43.5234 109.948 40.8208 110.907C40.8208 110.907 44.6668 112.972 46.0826 113.197C46.6166 113.282 48.2367 112.992 48.2367 112.992Z" fill="#339900"/>
<path d="M10.7618 64.9531L6.99831 75.606H3.7635L0 64.9531H2.75094L5.3818 72.9958L8.027 64.9531H10.7636H10.7618Z" fill="#1E202C"/>
<path d="M14.4202 64.9531V75.606H11.8359V64.9531H14.4202Z" fill="#1E202C"/>
<path d="M21.7072 75.606L19.4993 71.5855H18.8792V75.606H16.2949V64.9531H20.6337C21.4706 64.9531 22.1839 65.1006 22.7735 65.3938C23.3631 65.6871 23.804 66.09 24.0961 66.6009C24.3882 67.1118 24.5352 67.6802 24.5352 68.308C24.5352 69.0167 24.3363 69.6481 23.9384 70.204C23.5406 70.7598 22.9527 71.1556 22.1767 71.3876L24.6266 75.606H21.7072ZM18.881 69.7471H20.4832C20.9563 69.7471 21.3111 69.6302 21.5495 69.3981C21.786 69.166 21.9043 68.8369 21.9043 68.4123C21.9043 67.9878 21.786 67.6892 21.5495 67.4571C21.3129 67.2251 20.9581 67.1082 20.4832 67.1082H18.881V69.7489V69.7471Z" fill="#1E202C"/>
<path d="M33.7861 64.9531V67.0326H30.9743V75.606H28.39V67.0326H25.5781V64.9531H33.7861Z" fill="#1E202C"/>
<path d="M37.6251 64.9531V71.3265C37.6251 71.9633 37.781 72.4544 38.0947 72.7979C38.4065 73.1415 38.8653 73.3142 39.471 73.3142C40.0768 73.3142 40.5391 73.1415 40.8617 72.7979C41.1843 72.4544 41.3456 71.9633 41.3456 71.3265V64.9531H43.9299V71.3103C43.9299 72.2619 43.7274 73.066 43.3259 73.7226C42.9227 74.3809 42.3815 74.8756 41.7005 75.2102C41.0194 75.5448 40.2614 75.7103 39.4244 75.7103C38.5875 75.7103 37.8402 75.5466 37.1789 75.2174C36.5194 74.8882 35.9979 74.3935 35.6143 73.7298C35.2308 73.0678 35.0391 72.2601 35.0391 71.3103V64.9531H37.6251Z" fill="#1E202C"/>
<path d="M52.35 73.7244H48.3894L47.755 75.606H45.0488L48.8894 64.9531H51.8823L55.7228 75.606H52.9862L52.3518 73.7244H52.35ZM51.6851 71.7204L50.3697 67.8205L49.0704 71.7204H51.6851Z" fill="#1E202C"/>
<path d="M59.471 73.6038H62.8581V75.606H56.8867V64.9531H59.471V73.602V73.6038Z" fill="#1E202C"/>
<path d="M76.4928 64.9531V75.606H73.9086V71.2203H69.887V75.606H67.3027V64.9531H69.887V69.1265H73.9086V64.9531H76.4928Z" fill="#1E202C"/>
<path d="M80.6274 75.0186C79.7958 74.5527 79.1363 73.9033 78.647 73.0686C78.1578 72.234 77.9141 71.295 77.9141 70.2534C77.9141 69.2119 78.1578 68.2765 78.647 67.4454C79.1363 66.6161 79.7958 65.9685 80.6274 65.5026C81.4589 65.0367 82.3729 64.8047 83.3711 64.8047C84.3694 64.8047 85.2833 65.0367 86.1149 65.5026C86.9465 65.9685 87.6006 66.6161 88.0809 67.4454C88.5594 68.2747 88.7995 69.2101 88.7995 70.2534C88.7995 71.2968 88.5576 72.234 88.0737 73.0686C87.5898 73.9033 86.9339 74.5527 86.1077 75.0186C85.2816 75.4845 84.3694 75.7166 83.3711 75.7166C82.3729 75.7166 81.4589 75.4845 80.6274 75.0186ZM85.4034 72.4984C85.9124 71.9318 86.1669 71.1834 86.1669 70.2534C86.1669 69.3234 85.9124 68.5607 85.4034 67.9995C84.8945 67.4382 84.217 67.1576 83.3693 67.1576C82.5217 67.1576 81.8299 67.4364 81.3209 67.9923C80.812 68.5481 80.5575 69.3018 80.5575 70.2534C80.5575 71.205 80.812 71.9462 81.3209 72.5074C81.8299 73.0686 82.5127 73.3493 83.3693 73.3493C84.226 73.3493 84.8945 73.0668 85.4034 72.5002V72.4984Z" fill="#1E202C"/>
<path d="M102.253 64.9531V75.606H99.6684V69.2182L97.2956 75.606H95.2095L92.8206 69.202V75.606H90.2363V64.9531H93.2901L96.2687 72.3284L99.2167 64.9531H102.256H102.253Z" fill="#1E202C"/>
<path d="M106.698 67.0326V69.1876H110.16V71.1898H106.698V73.5265H110.613V75.606H104.113V64.9531H110.613V67.0326H106.698Z" fill="#1E202C"/>
<path d="M114.044 75.3352C113.429 75.0816 112.938 74.7074 112.571 74.2127C112.203 73.718 112.01 73.1208 111.988 72.4228H114.739C114.779 72.8168 114.915 73.119 115.148 73.3259C115.379 73.5327 115.682 73.6371 116.055 73.6371C116.427 73.6371 116.739 73.5489 116.961 73.3708C117.184 73.1946 117.295 72.9481 117.295 72.6351C117.295 72.3725 117.207 72.1548 117.03 71.9821C116.854 71.8094 116.637 71.6691 116.379 71.5576C116.123 71.4461 115.757 71.3201 115.282 71.178C114.598 70.9658 114.037 70.7535 113.605 70.5412C113.171 70.329 112.798 70.016 112.486 69.6004C112.175 69.1849 112.019 68.6452 112.019 67.9761C112.019 66.9849 112.377 66.2078 113.092 65.6466C113.807 65.0853 114.739 64.8047 115.89 64.8047C117.04 64.8047 118.001 65.0853 118.716 65.6466C119.431 66.2078 119.815 66.9903 119.865 67.9905H117.067C117.047 67.6469 116.92 67.3753 116.689 67.1792C116.458 66.9813 116.16 66.8824 115.797 66.8824C115.485 66.8824 115.232 66.9651 115.04 67.1324C114.849 67.2997 114.754 67.5389 114.754 67.8537C114.754 68.1973 114.915 68.4654 115.237 68.6578C115.56 68.8503 116.064 69.0572 116.75 69.2802C117.435 69.5123 117.992 69.7354 118.42 69.9476C118.849 70.1599 119.22 70.4693 119.531 70.874C119.843 71.2788 120.001 71.8004 120.001 72.4372C120.001 73.074 119.847 73.5957 119.54 74.0904C119.232 74.5869 118.788 74.9808 118.203 75.274C117.619 75.5673 116.927 75.7148 116.132 75.7148C115.336 75.7148 114.66 75.5888 114.046 75.3352H114.044Z" fill="#1E202C"/>
<path d="M4.63105 81.0859L3.24035 83.7752V85.3043H2.55037V83.7752L1.1543 81.0859H1.92313L2.89626 83.1564L3.86939 81.0859H4.63105Z" fill="#1E202C"/>
<path d="M8.18937 85.0715C7.86141 84.888 7.60155 84.6308 7.40979 84.2998C7.21803 83.9688 7.12305 83.5982 7.12305 83.1863C7.12305 82.7743 7.21803 82.4038 7.40979 82.0764C7.60155 81.749 7.86141 81.4918 8.18937 81.3083C8.51733 81.1248 8.87755 81.0312 9.26824 81.0312C9.65893 81.0312 10.0245 81.123 10.3543 81.3083C10.684 81.4936 10.9421 81.749 11.1321 82.0764C11.322 82.4038 11.417 82.7743 11.417 83.1863C11.417 83.5982 11.322 83.9706 11.1321 84.2998C10.9421 84.629 10.684 84.8862 10.3543 85.0715C10.0245 85.2568 9.6643 85.3485 9.26824 85.3485C8.87218 85.3485 8.51733 85.2568 8.18937 85.0715ZM10.0138 84.5552C10.2306 84.4275 10.4009 84.2458 10.5245 84.0084C10.6482 83.7709 10.7091 83.4975 10.7091 83.1863C10.7091 82.8751 10.6482 82.6017 10.5245 82.366C10.4009 82.1322 10.2306 81.9505 10.0138 81.8263C9.79692 81.7022 9.54781 81.6375 9.27003 81.6375C8.99225 81.6375 8.74314 81.7004 8.52629 81.8263C8.30944 81.9523 8.1374 82.1322 8.01553 82.366C7.89188 82.5999 7.83094 82.8733 7.83094 83.1863C7.83094 83.4993 7.89188 83.7727 8.01553 84.0084C8.13919 84.2458 8.30944 84.4275 8.52629 84.5552C8.74314 84.6829 8.99225 84.7459 9.27003 84.7459C9.54781 84.7459 9.79692 84.6829 10.0138 84.5552Z" fill="#1E202C"/>
<path d="M14.9519 81.0859V83.7752C14.9519 84.0954 15.0361 84.3365 15.2028 84.4984C15.3694 84.6603 15.6024 84.7412 15.9017 84.7412C16.201 84.7412 16.4393 84.6603 16.606 84.4984C16.7727 84.3365 16.8569 84.0954 16.8569 83.7752V81.0859H17.5469V83.7626C17.5469 84.1062 17.4716 84.3976 17.3229 84.6369C17.1741 84.8761 16.9734 85.0542 16.7243 85.1711C16.4734 85.2881 16.1974 85.3474 15.8963 85.3474C15.5952 85.3474 15.3192 85.2881 15.0701 85.1711C14.821 85.0542 14.6257 84.8761 14.4805 84.6369C14.3354 84.3976 14.2637 84.1062 14.2637 83.7626V81.0859H14.9536H14.9519Z" fill="#1E202C"/>
<path d="M22.8018 85.3043L21.8341 83.6169H21.3072V85.3043H20.6172V81.0859H22.0688C22.3914 81.0859 22.6638 81.1435 22.8878 81.255C23.1118 81.3684 23.2785 81.5195 23.3896 81.7101C23.5007 81.9008 23.5563 82.1131 23.5563 82.3469C23.5563 82.6222 23.4774 82.8722 23.3179 83.0971C23.1584 83.3219 22.9129 83.4748 22.5832 83.5558L23.6226 85.3043H22.8H22.8018ZM21.309 83.0647H22.0706C22.3287 83.0647 22.5222 82.9999 22.6549 82.8704C22.7857 82.7409 22.852 82.5664 22.852 82.3487C22.852 82.1311 22.7875 81.9602 22.6584 81.8361C22.5294 81.7119 22.3341 81.6508 22.0724 81.6508H21.3107V83.0647H21.309Z" fill="#1E202C"/>
<path d="M33.7219 81.0859V85.3043H33.0319V83.4586H31.0552V85.3043H30.3652V81.0859H31.0552V82.8938H33.0319V81.0859H33.7219Z" fill="#1E202C"/>
<path d="M37.6444 85.0715C37.3165 84.888 37.0566 84.6308 36.8649 84.2998C36.6731 83.9688 36.5781 83.5982 36.5781 83.1863C36.5781 82.7743 36.6731 82.4038 36.8649 82.0764C37.0566 81.749 37.3165 81.4918 37.6444 81.3083C37.9724 81.1248 38.3326 81.0312 38.7233 81.0312C39.114 81.0312 39.4796 81.123 39.8094 81.3083C40.1391 81.4936 40.3972 81.749 40.5871 82.0764C40.7771 82.4038 40.8721 82.7743 40.8721 83.1863C40.8721 83.5982 40.7771 83.9706 40.5871 84.2998C40.3972 84.629 40.1391 84.8862 39.8094 85.0715C39.4796 85.2568 39.1194 85.3485 38.7233 85.3485C38.3273 85.3485 37.9724 85.2568 37.6444 85.0715ZM39.4671 84.5552C39.6839 84.4275 39.8542 84.2458 39.9778 84.0084C40.1015 83.7709 40.1624 83.4975 40.1624 83.1863C40.1624 82.8751 40.1015 82.6017 39.9778 82.366C39.8542 82.1322 39.6839 81.9505 39.4671 81.8263C39.2502 81.7022 39.0011 81.6375 38.7233 81.6375C38.4455 81.6375 38.1964 81.7004 37.9796 81.8263C37.7627 81.9523 37.5907 82.1322 37.4688 82.366C37.3452 82.5999 37.2842 82.8733 37.2842 83.1863C37.2842 83.4993 37.3452 83.7727 37.4688 84.0084C37.5925 84.2458 37.7627 84.4275 37.9796 84.5552C38.1964 84.6829 38.4455 84.7459 38.7233 84.7459C39.0011 84.7459 39.2502 84.6829 39.4671 84.5552Z" fill="#1E202C"/>
<path d="M48.1491 81.0859V85.3043H47.4591V82.4153L46.1777 85.3043H45.6992L44.4107 82.4153V85.3043H43.7207V81.0859H44.4644L45.9394 84.394L47.4089 81.0859H48.1491Z" fill="#1E202C"/>
<path d="M51.9244 81.6412V82.8788H53.376V83.4436H51.9244V84.737H53.557V85.3018H51.2344V81.0781H53.557V81.643H51.9244V81.6412Z" fill="#1E202C"/>
<path d="M61.1659 85.0715C60.838 84.888 60.5781 84.6308 60.3864 84.2998C60.1946 83.9688 60.0996 83.5982 60.0996 83.1863C60.0996 82.7743 60.1946 82.4038 60.3864 82.0764C60.5781 81.749 60.838 81.4918 61.1659 81.3083C61.4939 81.1248 61.8541 81.0312 62.2448 81.0312C62.6355 81.0312 63.0011 81.123 63.3308 81.3083C63.6588 81.4918 63.9187 81.749 64.1086 82.0764C64.2986 82.4038 64.3936 82.7743 64.3936 83.1863C64.3936 83.5982 64.2986 83.9706 64.1086 84.2998C63.9187 84.629 63.6606 84.8862 63.3308 85.0715C63.0029 85.255 62.6409 85.3485 62.2448 85.3485C61.8487 85.3485 61.4939 85.2568 61.1659 85.0715ZM62.9903 84.5552C63.2072 84.4275 63.3774 84.2458 63.5011 84.0084C63.6247 83.7709 63.6857 83.4975 63.6857 83.1863C63.6857 82.8751 63.6247 82.6017 63.5011 82.366C63.3774 82.1322 63.2072 81.9505 62.9903 81.8263C62.7735 81.7022 62.5244 81.6375 62.2466 81.6375C61.9688 81.6375 61.7197 81.7004 61.5029 81.8263C61.286 81.9523 61.114 82.1322 60.9921 82.366C60.8684 82.5999 60.8075 82.8733 60.8075 83.1863C60.8075 83.4993 60.8684 83.7727 60.9921 84.0084C61.1158 84.2458 61.286 84.4275 61.5029 84.5552C61.7197 84.6829 61.9688 84.7459 62.2466 84.7459C62.5244 84.7459 62.7735 84.6829 62.9903 84.5552Z" fill="#1E202C"/>
<path d="M70.6976 85.3018H70.0076L67.9341 82.152V85.3018H67.2441V81.0781H67.9341L70.0076 84.2225V81.0781H70.6976V85.3018Z" fill="#1E202C"/>
<path d="M74.4732 84.7466H75.8943V85.3043H73.7832V81.0859H74.4732V84.7466Z" fill="#1E202C"/>
<path d="M81.76 81.0859L80.3693 83.7752V85.3043H79.6793V83.7752L78.2832 81.0859H79.052L80.0252 83.1564L80.9983 81.0859H81.76Z" fill="#1E202C"/>
<path d="M91.0531 83.4946C91.2108 83.6925 91.2897 83.9173 91.2897 84.1692C91.2897 84.3832 91.2341 84.5775 91.123 84.7484C91.0119 84.9193 90.8524 85.056 90.6427 85.155C90.433 85.2539 90.1893 85.3043 89.9115 85.3043H88.2305V81.0859H89.8326C90.1194 81.0859 90.3649 81.1345 90.571 81.2316C90.7771 81.3288 90.9312 81.4601 91.037 81.6238C91.1409 81.7875 91.1947 81.971 91.1947 82.1724C91.1947 82.4153 91.1302 82.6186 91.0011 82.7805C90.8721 82.9424 90.6982 83.0611 90.4814 83.1384C90.7072 83.1798 90.899 83.2985 91.0567 83.4964H91.0531V83.4946ZM88.9187 82.8578H89.7717C89.9975 82.8578 90.1731 82.8056 90.3004 82.7031C90.4276 82.6006 90.4904 82.4513 90.4904 82.257C90.4904 82.0627 90.4276 81.9188 90.3004 81.8109C90.1731 81.7029 89.9975 81.6508 89.7717 81.6508H88.9187V82.8578ZM90.399 84.5703C90.5316 84.457 90.5979 84.2987 90.5979 84.0972C90.5979 83.8958 90.528 83.7267 90.3864 83.6061C90.2448 83.4856 90.0584 83.4245 89.8237 83.4245H88.9169V84.7412H89.8488C90.0818 84.7412 90.2663 84.6837 90.399 84.5703Z" fill="#1E202C"/>
<path d="M94.9048 81.6412V82.8788H96.3564V83.4436H94.9048V84.737H96.5375V85.3018H94.2148V81.0781H96.5375V81.643H94.9048V81.6412Z" fill="#1E202C"/>
<path d="M102.276 81.0859V81.6508H101.157V85.3043H100.467V81.6508H99.3418V81.0859H102.276Z" fill="#1E202C"/>
<path d="M107.863 81.0859V81.6508H106.745V85.3043H106.055V81.6508H104.93V81.0859H107.863Z" fill="#1E202C"/>
<path d="M111.424 81.6412V82.8788H112.876V83.4436H111.424V84.737H113.057V85.3018H110.734V81.0781H113.057V81.643H111.424V81.6412Z" fill="#1E202C"/>
<path d="M118.263 85.3043L117.295 83.6169H116.768V85.3043H116.078V81.0859H117.53C117.852 81.0859 118.125 81.1435 118.349 81.255C118.573 81.3684 118.739 81.5195 118.851 81.7101C118.962 81.9008 119.017 82.1131 119.017 82.3469C119.017 82.6222 118.938 82.8722 118.779 83.0971C118.619 83.3219 118.374 83.4748 118.044 83.5558L119.084 85.3043H118.261H118.263ZM116.77 83.0647H117.532C117.79 83.0647 117.983 82.9999 118.116 82.8704C118.247 82.7409 118.313 82.5664 118.313 82.3487C118.313 82.1311 118.248 81.9602 118.119 81.8361C117.99 81.7119 117.795 81.6508 117.533 81.6508H116.772V83.0647H116.77Z" fill="#1E202C"/>
<path d="M118.563 90.125H1.43555V91.6432H118.563V90.125Z" fill="#0A2F5B"/>
</g>
<defs>
<clipPath id="clip0_2315_87592">
<rect width="120" height="120" fill="white"/>
</clipPath>
</defs>
</svg>
