<svg width="250" height="251" viewBox="0 0 250 251" fill="none" xmlns="http://www.w3.org/2000/svg">
<mask id="mask0_3614_2748" style="mask-type:luminance" maskUnits="userSpaceOnUse" x="0" y="0" width="250" height="251">
<path d="M249.995 0.5H0V250.5H249.995V0.5Z" fill="white"/>
</mask>
<g mask="url(#mask0_3614_2748)">
<g opacity="0.75">
<path d="M94.4731 90.6641V125.504H47.9091V96.1491C47.9091 93.1191 50.364 90.6641 53.3989 90.6641H94.4731Z" fill="#C0C6CD"/>
<path d="M214.701 96.1462V104.101H191.036V90.6562H209.216C212.246 90.6562 214.706 93.1113 214.706 96.1413L214.701 96.1462Z" fill="#C0C6CD"/>
</g>
<path d="M95.2231 126.246H47.1591V96.1412C47.1591 92.7012 49.959 89.9062 53.3989 89.9062H95.2231V126.246ZM48.659 124.746H93.7231V91.4062H53.3989C50.784 91.4062 48.659 93.5312 48.659 96.1412V124.746Z" fill="#C0C6CD"/>
<path d="M215.451 104.851H190.286V89.9062H209.216C212.656 89.9062 215.456 92.7063 215.456 96.1413V104.846L215.451 104.851ZM191.786 103.351H213.951V96.1462C213.951 93.5362 211.826 91.4113 209.211 91.4113H191.781V103.356L191.786 103.351Z" fill="#C0C6CD"/>
<g opacity="0.5">
<path d="M215.051 104.102H139.552C136.597 104.102 133.812 105.462 131.992 107.787L121.028 121.817C119.208 124.142 116.418 125.502 113.463 125.502H47.1541C41.4142 125.502 36.9593 130.497 37.6142 136.202L40.6042 162.232L44.6741 160.302C45.7841 159.772 47.1041 160.267 47.594 161.392C49.594 165.987 55.0989 176.947 63.6187 181.127C68.6736 183.607 72.0936 185.202 74.3035 186.202C75.8285 186.892 76.0285 188.977 74.6635 189.947L46.3541 209.992C47.704 213.712 51.269 216.312 55.3789 216.312H203.206C208.041 216.312 212.121 212.717 212.731 207.922L215.221 188.392L211.376 194.477C210.776 195.422 209.556 195.757 208.561 195.252L174.652 177.947C173.107 177.152 173.067 174.947 174.602 174.117C178.921 171.767 185.721 167.362 188.306 161.787C190.821 156.362 191.801 151.697 192.186 149.062C192.361 147.827 193.551 147.002 194.771 147.262L219.796 152.522L224.585 114.922C225.315 109.187 220.846 104.107 215.061 104.107H215.056L215.051 104.102ZM86.3733 175.157C82.2134 175.157 78.8384 171.782 78.8384 167.622C78.8384 163.462 82.2134 160.087 86.3733 160.087C90.5332 160.087 93.9081 163.462 93.9081 167.622C93.9081 171.782 90.5332 175.157 86.3733 175.157ZM109.483 175.157C105.323 175.157 101.948 171.782 101.948 167.622C101.948 163.462 105.323 160.087 109.483 160.087C113.643 160.087 117.018 163.462 117.018 167.622C117.018 171.782 113.643 175.157 109.483 175.157ZM132.602 175.157C128.437 175.157 125.067 171.782 125.067 167.622C125.067 163.462 128.437 160.087 132.602 160.087C136.767 160.087 140.132 163.462 140.132 167.622C140.132 171.782 136.762 175.157 132.602 175.157Z" fill="#C0C6CD"/>
</g>
<path d="M203.201 217.052H55.3739C51.034 217.052 47.1241 214.312 45.6441 210.237L45.4491 209.702L74.2285 189.322C74.6485 189.027 74.8685 188.537 74.8235 188.027C74.7735 187.517 74.4635 187.087 73.9935 186.877C71.1286 185.582 67.5237 183.872 63.2888 181.792C54.5339 177.497 48.919 166.297 46.9091 161.682C46.7541 161.332 46.4691 161.062 46.1091 160.922C45.7441 160.787 45.3491 160.802 44.9991 160.972L39.9842 163.357L36.8743 136.282C36.5393 133.352 37.4743 130.412 39.4342 128.212C41.3942 126.012 44.2141 124.752 47.1591 124.752H113.463C116.208 124.752 118.748 123.512 120.438 121.352L131.402 107.322C133.377 104.797 136.347 103.352 139.557 103.352H215.051C218.021 103.352 220.851 104.632 222.816 106.862C224.781 109.092 225.691 112.062 225.316 115.012L220.426 153.417L194.606 147.987C194.221 147.907 193.826 147.987 193.501 148.212C193.176 148.437 192.971 148.772 192.916 149.162C192.491 152.102 191.461 156.722 188.976 162.092C186.396 167.662 179.926 172.057 174.952 174.767C174.482 175.022 174.207 175.487 174.217 176.022C174.227 176.562 174.512 177.022 174.992 177.272L208.901 194.577C209.556 194.907 210.346 194.692 210.741 194.067L216.391 185.127L213.476 208.007C212.816 213.162 208.401 217.052 203.206 217.052H203.201ZM47.2641 210.252C48.664 213.447 51.854 215.552 55.3739 215.552H203.201C207.646 215.552 211.416 212.227 211.981 207.822L214.041 191.642L211.996 194.872C211.186 196.152 209.556 196.597 208.206 195.912L174.302 178.602C173.332 178.107 172.722 177.127 172.712 176.037C172.702 174.957 173.282 173.962 174.227 173.447C178.136 171.322 185.071 166.932 187.606 161.462C190.016 156.257 191.016 151.782 191.426 148.947C191.541 148.157 191.981 147.442 192.636 146.982C193.296 146.522 194.126 146.352 194.911 146.517L219.136 151.607L223.821 114.817C224.141 112.292 223.366 109.757 221.686 107.847C220.006 105.937 217.586 104.847 215.046 104.847H139.552C136.807 104.847 134.267 106.087 132.582 108.247L121.618 122.277C119.643 124.802 116.668 126.247 113.463 126.247H47.1541C44.6341 126.247 42.2242 127.322 40.5492 129.202C38.8742 131.082 38.0743 133.602 38.3593 136.107L41.2242 161.097L44.3441 159.612C45.0691 159.272 45.8741 159.232 46.6241 159.517C47.3691 159.797 47.9541 160.352 48.2741 161.082C50.219 165.547 55.6339 176.372 63.9437 180.447C68.1687 182.522 71.7536 184.227 74.6085 185.512C75.5735 185.947 76.2085 186.832 76.3085 187.887C76.4085 188.942 75.9585 189.937 75.0935 190.552L47.2641 210.257V210.252Z" fill="#C0C6CD"/>
<g opacity="0.25">
<path d="M74.6585 189.942L46.3491 209.987L45.8941 210.312C45.1591 210.837 44.1691 210.847 43.4191 210.332C38.2142 206.752 18.8696 191.997 21.8596 172.192C21.9696 171.477 22.4296 170.867 23.0745 170.562L40.6042 162.237L44.6741 160.307C45.7841 159.777 47.1041 160.272 47.5941 161.392C49.594 165.987 55.0989 176.947 63.6187 181.127C68.6686 183.607 72.0886 185.202 74.3035 186.202C75.8285 186.892 76.0285 188.977 74.6635 189.942H74.6585Z" fill="#C0C6CD"/>
<path d="M228.44 156.354C227.92 160.654 225.995 171.344 219.161 182.149L215.216 188.389L211.371 194.474C210.771 195.419 209.551 195.759 208.556 195.249L174.647 177.944C173.102 177.154 173.067 174.944 174.597 174.114C178.916 171.764 185.721 167.359 188.301 161.784C190.816 156.359 191.801 151.694 192.181 149.059C192.356 147.824 193.546 146.999 194.771 147.259L219.791 152.519L226.74 153.984C227.835 154.214 228.58 155.244 228.445 156.364H228.44V156.354Z" fill="#C0C6CD"/>
<path d="M33.6393 98.3361L24.5045 89.2011C24.0145 88.7111 23.7845 88.0161 23.8945 87.3311C24.3395 84.5211 26.3445 77.0211 35.2893 70.9061C44.4691 64.6411 54.1939 63.6711 57.4639 63.5261C58.1688 63.4911 58.8438 63.8061 59.2738 64.3661L68.9836 76.9661C70.0036 78.2911 69.2036 80.2311 67.5437 80.4361C61.3888 81.2011 48.959 84.5061 36.7843 98.2411C35.9593 99.1711 34.5193 99.2111 33.6343 98.3361H33.6393Z" fill="#C0C6CD"/>
</g>
<path d="M44.6441 211.456C44.0691 211.456 43.4891 211.286 42.9941 210.946C40.5192 209.246 34.1943 204.556 28.9694 197.801C22.4496 189.376 19.8096 180.716 21.1146 172.076C21.2596 171.121 21.8696 170.301 22.7446 169.881L44.3441 159.621C45.0691 159.281 45.8791 159.241 46.6241 159.526C47.3691 159.806 47.9541 160.361 48.274 161.091C50.219 165.556 55.6339 176.376 63.9437 180.451C68.1686 182.526 71.7536 184.231 74.6085 185.516C75.5735 185.951 76.2085 186.836 76.3085 187.886C76.4085 188.941 75.9585 189.936 75.0935 190.551L46.3291 210.921C45.8241 211.276 45.2391 211.456 44.6441 211.456ZM45.6041 160.836C45.3991 160.836 45.1841 160.886 44.9941 160.976L23.3945 171.236C22.9695 171.441 22.6696 171.836 22.5996 172.301C19.7096 191.471 38.1292 205.781 43.8441 209.711C44.3291 210.041 44.9791 210.036 45.4591 209.696L45.9091 209.376L74.2185 189.326C74.6385 189.026 74.8585 188.541 74.8135 188.031C74.7635 187.521 74.4535 187.091 73.9835 186.881C71.1186 185.586 67.5137 183.876 63.2787 181.796C54.5239 177.501 48.904 166.301 46.8941 161.686C46.7391 161.336 46.4541 161.066 46.0941 160.926C45.9341 160.866 45.7641 160.836 45.5941 160.836H45.6041Z" fill="#C0C6CD"/>
<path d="M209.546 196.238C209.096 196.238 208.641 196.133 208.216 195.918L174.312 178.608C173.342 178.113 172.732 177.133 172.722 176.043C172.712 174.963 173.292 173.968 174.237 173.453C178.146 171.328 185.081 166.938 187.616 161.468C190.026 156.263 191.026 151.788 191.436 148.953C191.551 148.163 191.991 147.448 192.646 146.988C193.306 146.528 194.136 146.358 194.921 146.523L226.89 153.243C228.38 153.553 229.365 154.933 229.185 156.443C228.675 160.633 226.745 171.558 219.791 182.553L212.001 194.878C211.446 195.753 210.511 196.238 209.541 196.238H209.546ZM194.311 147.963C194.021 147.963 193.746 148.053 193.506 148.218C193.181 148.443 192.976 148.778 192.921 149.168C192.496 152.108 191.466 156.728 188.981 162.098C186.401 167.668 179.931 172.063 174.957 174.773C174.487 175.028 174.212 175.493 174.222 176.028C174.232 176.568 174.517 177.028 174.997 177.278L208.906 194.583C209.561 194.913 210.351 194.698 210.746 194.073L218.536 181.753C225.325 171.018 227.21 160.353 227.705 156.268C227.79 155.533 227.315 154.868 226.59 154.718L194.621 147.998C194.521 147.978 194.421 147.968 194.321 147.968L194.311 147.963Z" fill="#C0C6CD"/>
<path d="M35.1743 99.7167C34.4043 99.7167 33.6593 99.4117 33.1143 98.8617L23.9795 89.7267C23.3245 89.0717 23.0145 88.1267 23.1645 87.2117C23.6395 84.2017 25.7345 76.5317 34.8793 70.2867C44.0841 64.0017 53.7239 62.9417 57.4388 62.7767C58.3888 62.7317 59.2988 63.1567 59.8788 63.9067L69.5886 76.5067C70.2386 77.3467 70.3786 78.4317 69.9686 79.4117C69.5586 80.3867 68.6936 81.0467 67.6436 81.1767C61.4637 81.9417 49.309 85.2467 37.3542 98.7367C36.8242 99.3367 36.0643 99.6917 35.2643 99.7117H35.1743V99.7167ZM57.5588 64.2717H57.4988C53.9089 64.4317 44.5991 65.4567 35.7193 71.5267C27.0594 77.4417 25.0845 84.6267 24.6445 87.4467C24.5745 87.8917 24.7195 88.3467 25.0395 88.6667L34.1743 97.8017C34.4543 98.0817 34.8243 98.2317 35.2193 98.2167C35.6093 98.2067 35.9743 98.0367 36.2293 97.7467C48.514 83.8867 61.0688 80.4867 67.4536 79.6967C67.9586 79.6367 68.3786 79.3117 68.5736 78.8417C68.7736 78.3667 68.7036 77.8367 68.3886 77.4267L58.6788 64.8267C58.4138 64.4817 57.9938 64.2767 57.5588 64.2767V64.2717Z" fill="#C0C6CD"/>
<g opacity="0.25">
<path d="M188.781 64.2878L167.432 43.3928C166.032 42.0228 164.147 41.2578 162.192 41.2578H101.963C97.823 41.2578 94.4731 44.6128 94.4731 48.7478V125.503H113.463C116.418 125.503 119.208 124.143 121.028 121.818L131.997 107.788C133.817 105.463 136.607 104.103 139.557 104.103H191.041V69.6478C191.041 67.6328 190.226 65.7028 188.791 64.2878H188.786H188.781ZM131.512 89.0828C130.692 89.8078 129.672 90.1728 128.442 90.1728C127.212 90.1728 126.197 89.8078 125.382 89.0828C124.562 88.3578 124.147 87.4278 124.147 86.2978C124.147 85.1678 124.562 84.2378 125.382 83.5028C126.202 82.7778 127.222 82.4128 128.442 82.4128C129.662 82.4128 130.687 82.7778 131.512 83.5028C132.332 84.2328 132.737 85.1578 132.737 86.2978C132.737 87.4378 132.327 88.3578 131.512 89.0828ZM138.782 68.5578C138.277 69.6028 137.457 70.6678 136.342 71.7528L133.702 74.2078C132.952 74.9278 132.432 75.6628 132.142 76.4228C131.852 77.1828 131.687 78.1428 131.662 79.3028H125.092C125.092 77.0678 125.342 75.3028 125.847 74.0078C126.352 72.7128 127.172 71.5878 128.302 70.6428C129.432 69.6978 130.297 68.8278 130.887 68.0328C131.472 67.2478 131.772 66.3778 131.772 65.4328C131.772 63.1228 130.777 61.9628 128.787 61.9628C127.872 61.9628 127.127 62.3028 126.562 62.9778C125.992 63.6528 125.697 64.5578 125.662 65.7128H117.903C117.933 62.6478 118.893 60.2628 120.793 58.5578C122.693 56.8578 125.352 55.9978 128.782 55.9978C132.212 55.9978 134.842 56.7828 136.717 58.3628C138.592 59.9428 139.532 62.1878 139.532 65.0928C139.532 66.3628 139.282 67.5178 138.777 68.5578H138.782ZM151.522 89.4728C150.997 89.9378 150.342 90.1728 149.557 90.1728C148.772 90.1728 148.117 89.9378 147.597 89.4728C147.067 89.0078 146.807 88.4128 146.807 87.6828C146.807 86.9528 147.067 86.3628 147.597 85.8878C148.122 85.4228 148.777 85.1928 149.557 85.1928C150.337 85.1928 151.002 85.4278 151.522 85.8878C152.052 86.3578 152.312 86.9478 152.312 87.6828C152.312 88.4178 152.052 89.0078 151.522 89.4728ZM156.187 76.3128C155.862 76.9828 155.342 77.6628 154.627 78.3628L152.932 79.9378C152.447 80.4028 152.112 80.8728 151.932 81.3578C151.742 81.8428 151.642 82.4628 151.622 83.2028H147.412C147.412 81.7678 147.572 80.6378 147.897 79.8128C148.222 78.9828 148.747 78.2628 149.472 77.6528C150.197 77.0428 150.752 76.4878 151.132 75.9828C151.507 75.4778 151.702 74.9228 151.702 74.3128C151.702 72.8278 151.067 72.0878 149.787 72.0878C149.197 72.0878 148.717 72.3028 148.357 72.7378C147.992 73.1678 147.802 73.7528 147.782 74.4878H142.807C142.822 72.5278 143.442 70.9928 144.657 69.9028C145.872 68.8078 147.582 68.2628 149.782 68.2628C151.982 68.2628 153.667 68.7678 154.867 69.7778C156.067 70.7878 156.672 72.2278 156.672 74.0928C156.672 74.9078 156.512 75.6478 156.192 76.3178L156.187 76.3128Z" fill="#C0C6CD"/>
</g>
<path d="M113.463 126.253H93.7231V48.7478C93.7231 44.2028 97.4181 40.5078 101.963 40.5078H162.192C164.357 40.5078 166.407 41.3428 167.957 42.8578L189.306 63.7528C190.881 65.2978 191.786 67.4428 191.786 69.6428V104.848H139.552C136.812 104.848 134.272 106.088 132.582 108.248L121.613 122.278C119.638 124.803 116.663 126.248 113.458 126.248L113.463 126.253ZM95.2231 124.753H113.463C116.208 124.753 118.748 123.513 120.433 121.353L131.397 107.323C133.372 104.798 136.342 103.353 139.552 103.353H190.286V69.6478C190.286 67.8478 189.546 66.0928 188.256 64.8278L166.907 43.9328C165.642 42.6928 163.962 42.0078 162.192 42.0078H101.963C98.2481 42.0078 95.2181 45.0328 95.2181 48.7478V124.753H95.2231Z" fill="#C0C6CD"/>
<g opacity="0.75">
<path d="M131.512 83.4884C130.692 82.7634 129.672 82.3984 128.442 82.3984C127.212 82.3984 126.197 82.7634 125.382 83.4884C124.563 84.2184 124.148 85.1434 124.148 86.2834C124.148 87.4234 124.563 88.3434 125.382 89.0684C126.202 89.7934 127.222 90.1584 128.442 90.1584C129.662 90.1584 130.687 89.7934 131.512 89.0684C132.332 88.3434 132.737 87.4134 132.737 86.2834C132.737 85.1534 132.327 84.2234 131.512 83.4884Z" fill="#C0C6CD"/>
<path d="M136.722 58.3622C134.852 56.7822 132.202 55.9922 128.792 55.9922C125.382 55.9922 122.698 56.8522 120.798 58.5522C118.898 60.2572 117.933 62.6422 117.908 65.7072H125.667C125.697 64.5572 125.997 63.6522 126.567 62.9722C127.132 62.2972 127.872 61.9622 128.792 61.9622C130.782 61.9622 131.777 63.1172 131.777 65.4322C131.777 66.3822 131.482 67.2472 130.892 68.0322C130.302 68.8272 129.442 69.6922 128.307 70.6422C127.172 71.5872 126.357 72.7122 125.847 74.0072C125.342 75.2972 125.093 77.0622 125.093 79.2972H131.662C131.692 78.1372 131.852 77.1772 132.142 76.4172C132.432 75.6572 132.952 74.9222 133.702 74.2022L136.342 71.7472C137.457 70.6622 138.272 69.5922 138.782 68.5522C139.287 67.5122 139.537 66.3572 139.537 65.0872C139.537 62.1772 138.597 59.9322 136.722 58.3572V58.3622Z" fill="#C0C6CD"/>
<path d="M151.522 85.8903C150.997 85.4253 150.342 85.1953 149.557 85.1953C148.772 85.1953 148.117 85.4253 147.597 85.8903C147.067 86.3603 146.807 86.9503 146.807 87.6853C146.807 88.4203 147.067 89.0103 147.597 89.4753C148.122 89.9403 148.777 90.1753 149.557 90.1753C150.337 90.1753 151.002 89.9403 151.522 89.4753C152.052 89.0103 152.312 88.4153 152.312 87.6853C152.312 86.9553 152.052 86.3653 151.522 85.8903Z" fill="#C0C6CD"/>
<path d="M154.867 69.7806C153.667 68.7656 151.967 68.2656 149.782 68.2656C147.597 68.2656 145.872 68.8106 144.657 69.9056C143.437 70.9956 142.817 72.5306 142.807 74.4906H147.782C147.802 73.7556 147.992 73.1706 148.357 72.7406C148.722 72.3056 149.197 72.0906 149.787 72.0906C151.062 72.0906 151.702 72.8356 151.702 74.3156C151.702 74.9256 151.512 75.4756 151.132 75.9856C150.752 76.4906 150.202 77.0456 149.472 77.6556C148.747 78.2656 148.222 78.9856 147.897 79.8156C147.572 80.6406 147.412 81.7706 147.412 83.2056H151.622C151.642 82.4606 151.742 81.8406 151.932 81.3606C152.117 80.8756 152.447 80.4006 152.932 79.9406L154.627 78.3656C155.342 77.6706 155.862 76.9856 156.187 76.3156C156.512 75.6506 156.672 74.9056 156.672 74.0956C156.672 72.2306 156.072 70.7906 154.867 69.7806Z" fill="#C0C6CD"/>
</g>
<path d="M196.596 207.047H60.2538V208.547H196.596V207.047Z" fill="#C0C6CD"/>
<path d="M120.883 194.727H83.0233V196.227H120.883V194.727Z" fill="#C0C6CD"/>
<g opacity="0.75">
<path d="M93.7731 169.048C94.5581 164.963 91.8832 161.013 87.7983 160.223C83.7133 159.438 79.7634 162.108 78.9734 166.198C78.1834 170.288 80.8584 174.233 84.9483 175.023C89.0332 175.808 92.9832 173.133 93.7731 169.048Z" fill="#C0C6CD"/>
<path d="M116.448 170.507C118.038 166.662 116.213 162.252 112.368 160.662C108.523 159.067 104.118 160.897 102.523 164.742C100.933 168.587 102.758 172.997 106.603 174.587C110.448 176.177 114.853 174.352 116.448 170.507Z" fill="#C0C6CD"/>
<path d="M140.132 167.621C140.132 171.781 136.762 175.156 132.602 175.156C128.442 175.156 125.068 171.781 125.068 167.621C125.068 163.461 128.437 160.086 132.602 160.086C136.767 160.086 140.132 163.461 140.132 167.621Z" fill="#C0C6CD"/>
</g>
<g opacity="0.25">
<path d="M21.8046 147.299H38.8892L37.6142 136.194C36.9593 130.494 41.4142 125.494 47.1491 125.494H47.904V103.109C46.2991 103.489 44.6291 103.694 42.9091 103.694H21.7996C9.7598 103.694 -0.00500488 113.454 -0.00500488 125.494C-0.00500488 131.514 2.43495 136.964 6.37987 140.904C10.3248 144.854 15.7747 147.289 21.7946 147.289L21.8046 147.299Z" fill="#C0C6CD"/>
<path d="M21.8046 60.1H42.9141C47.3641 60.1 51.504 61.44 54.9489 63.73C55.9889 63.615 56.8389 63.555 57.4588 63.53C58.1638 63.495 58.8438 63.81 59.2688 64.37L68.9786 76.97C69.9986 78.295 69.1986 80.235 67.5387 80.44C66.6987 80.545 65.7387 80.7 64.6787 80.915C64.6937 81.24 64.7037 81.57 64.7037 81.9C64.7037 85.015 64.0437 87.98 62.8637 90.66H94.4581V48.745C94.4581 44.61 97.808 41.255 101.948 41.255H162.177C164.137 41.255 166.022 42.02 167.417 43.39L188.766 64.285C190.206 65.695 191.021 67.625 191.021 69.645V90.66H205.626C204.446 87.98 203.791 85.015 203.791 81.9C203.791 69.86 213.551 60.1 225.59 60.1H228.18C240.22 60.1 249.985 50.34 249.985 38.3C249.985 32.28 247.545 26.83 243.6 22.885C239.655 18.94 234.205 16.5 228.185 16.5H21.8046C9.7648 16.495 0 26.26 0 38.3C0 44.32 2.43995 49.77 6.38487 53.715C10.3298 57.66 15.7797 60.1 21.7996 60.1H21.8046Z" fill="#C0C6CD"/>
<path d="M228.195 190.901H224.555C221.191 190.901 218.011 190.141 215.166 188.781L212.726 207.916C212.116 212.711 208.036 216.306 203.201 216.306H55.3739C51.264 216.306 47.699 213.706 46.3491 209.986L45.8941 210.311C45.1591 210.836 44.1691 210.846 43.4191 210.331C40.0392 208.006 30.7044 200.971 25.3895 190.911H21.8096C9.76981 190.911 0.00500488 200.671 0.00500488 212.706C0.00500488 218.726 2.44496 224.176 6.38988 228.121C10.3348 232.071 15.7847 234.506 21.8046 234.506H228.195C240.235 234.506 249.995 224.746 249.995 212.706C249.995 206.686 247.555 201.236 243.61 197.291C239.665 193.341 234.215 190.906 228.195 190.906V190.901Z" fill="#C0C6CD"/>
<path d="M228.195 103.698H225.6C221.631 103.698 217.911 102.633 214.701 100.773V104.098H215.046C220.831 104.098 225.3 109.173 224.57 114.913L220.396 147.698C221.741 147.438 223.131 147.298 224.55 147.298H228.19C240.23 147.298 249.99 137.538 249.99 125.503C249.99 119.483 247.55 114.028 243.605 110.088C239.655 106.138 234.21 103.703 228.19 103.703L228.195 103.698Z" fill="#C0C6CD"/>
</g>
<g opacity="0.75">
<g opacity="0.5">
<path d="M204.321 70.8675C208.376 70.8675 211.661 67.5825 211.661 63.5275C211.661 59.4725 208.376 56.1875 204.321 56.1875C200.266 56.1875 196.981 59.4725 196.981 63.5275C196.981 67.5825 200.266 70.8675 204.321 70.8675Z" fill="#C0C6CD"/>
</g>
<g opacity="0.5">
<path d="M240.945 154.194C243.595 154.194 245.745 152.044 245.745 149.394C245.745 146.744 243.595 144.594 240.945 144.594C238.295 144.594 236.145 146.744 236.145 149.394C236.145 152.044 238.295 154.194 240.945 154.194Z" fill="#C0C6CD"/>
</g>
<g opacity="0.5">
<path d="M29.4894 138.969C32.5943 138.969 35.1143 136.449 35.1143 133.344C35.1143 130.239 32.5943 127.719 29.4894 127.719C26.3845 127.719 23.8645 130.239 23.8645 133.344C23.8645 136.449 26.3845 138.969 29.4894 138.969Z" fill="#C0C6CD"/>
</g>
<g opacity="0.5">
<path d="M69.3586 55.9966C71.3336 55.9966 72.9285 54.3966 72.9285 52.4266C72.9285 50.4566 71.3286 48.8516 69.3586 48.8516C67.3887 48.8516 65.7837 50.4516 65.7837 52.4266C65.7837 54.4016 67.3837 55.9966 69.3586 55.9966Z" fill="#C0C6CD"/>
</g>
</g>
</g>
</svg>
